<svg width="379" height="72" viewBox="0 0 379 72" fill="none" xmlns="http://www.w3.org/2000/svg">
<path d="M14.2666 56C12.2559 56 10.4186 55.5147 8.75456 54.544C7.09056 53.5387 5.77323 52.1 4.80256 50.228C3.8319 48.356 3.34656 46.1027 3.34656 43.468C3.34656 39.5507 4.43856 36.5 6.62256 34.316C8.84123 32.132 11.8052 31.04 15.5146 31.04C18.2532 31.04 20.4719 31.5947 22.1706 32.704C23.9039 33.7787 24.7706 35.148 24.7706 36.812V56H18.0106V36.812C17.7679 36.7427 17.4212 36.6907 16.9706 36.656C16.5199 36.5867 16.0346 36.552 15.5146 36.552C13.7119 36.552 12.3599 37.0893 11.4586 38.164C10.5572 39.2387 10.1066 41.0067 10.1066 43.468C10.1066 45.6867 10.5052 47.42 11.3026 48.668C12.1346 49.8813 13.3479 50.488 14.9426 50.488H28.0466V56H14.2666ZM28.0466 56V50.488C28.4279 50.488 28.6879 50.748 28.8266 51.268C28.9999 51.7533 29.0866 52.412 29.0866 53.244C29.0866 54.076 28.9999 54.752 28.8266 55.272C28.6879 55.7573 28.4279 56 28.0466 56ZM18.3746 27.4C17.4732 27.4 16.6759 27.0707 15.9826 26.412C15.3239 25.7533 14.9946 24.956 14.9946 24.02C14.9946 23.084 15.3239 22.2867 15.9826 21.628C16.6759 20.9693 17.4732 20.64 18.3746 20.64C19.3452 20.64 20.1426 20.9693 20.7666 21.628C21.4252 22.2867 21.7546 23.084 21.7546 24.02C21.7546 24.956 21.4252 25.7533 20.7666 26.412C20.1426 27.0707 19.3452 27.4 18.3746 27.4ZM9.95056 27.4C9.04923 27.4 8.2519 27.0707 7.55856 26.412C6.8999 25.7533 6.57056 24.956 6.57056 24.02C6.57056 23.084 6.8999 22.2867 7.55856 21.628C8.2519 20.9693 9.04923 20.64 9.95056 20.64C10.8866 20.64 11.6839 20.9693 12.3426 21.628C13.0012 22.2867 13.3306 23.084 13.3306 24.02C13.3306 24.956 13.0012 25.7533 12.3426 26.412C11.6839 27.0707 10.8866 27.4 9.95056 27.4ZM28.0547 56V50.488H42.1987C43.3774 50.488 44.2787 50.124 44.9027 49.396C45.5267 48.668 45.8387 47.6107 45.8387 46.224V36.812C45.596 36.7427 45.2494 36.6907 44.7987 36.656C44.348 36.5867 43.8627 36.552 43.3427 36.552C41.54 36.552 40.188 37.0893 39.2867 38.164C38.3854 39.2387 37.9347 41.0067 37.9347 43.468C37.9347 45.6867 38.3334 47.368 39.1307 48.512C39.9627 49.656 41.176 50.3147 42.7707 50.488L42.0947 55.948C40.084 55.74 38.2467 55.168 36.5827 54.232C34.9534 53.2613 33.636 51.892 32.6307 50.124C31.66 48.3213 31.1747 46.1027 31.1747 43.468C31.1747 39.5507 32.2667 36.5 34.4507 34.316C36.6694 32.132 39.6334 31.04 43.3427 31.04C46.0814 31.04 48.3 31.5947 49.9987 32.704C51.732 33.7787 52.5987 35.148 52.5987 36.812V46.224C52.5987 48.096 52.148 49.7773 51.2467 51.268C50.38 52.724 49.1667 53.8853 47.6067 54.752C46.0467 55.584 44.244 56 42.1987 56H28.0547ZM28.0547 56C27.708 56 27.448 55.7573 27.2747 55.272C27.1014 54.752 27.0147 54.076 27.0147 53.244C27.0147 52.412 27.1014 51.7533 27.2747 51.268C27.448 50.748 27.708 50.488 28.0547 50.488V56ZM43.3947 27.66C42.32 27.66 41.4014 27.296 40.6387 26.568C39.9107 25.8053 39.5467 24.9213 39.5467 23.916C39.5467 22.876 39.9107 21.992 40.6387 21.264C41.4014 20.536 42.32 20.172 43.3947 20.172C44.4 20.172 45.2667 20.536 45.9947 21.264C46.7574 21.992 47.1387 22.876 47.1387 23.916C47.1387 24.9213 46.7574 25.8053 45.9947 26.568C45.2667 27.296 44.4 27.66 43.3947 27.66ZM67.3204 56V50.488H72.6764V56H67.3204ZM60.9764 67.908C60.1097 67.908 59.3817 67.7173 58.7924 67.336C58.203 66.9547 57.7524 66.504 57.4404 65.984C57.163 65.4987 57.0244 65.0827 57.0244 64.736C57.7524 64.1813 58.3764 63.5573 58.8964 62.864C59.4164 62.1707 59.815 61.2693 60.0924 60.16C60.4044 59.0853 60.5604 57.6987 60.5604 56V34.264C60.5604 33.2587 60.8724 32.4787 61.4964 31.924C62.155 31.3347 62.9697 31.04 63.9404 31.04C64.9457 31.04 65.7604 31.3347 66.3844 31.924C67.0084 32.4787 67.3204 33.2587 67.3204 34.264V56C67.3204 57.5253 67.1817 58.9987 66.9044 60.42C66.6617 61.8413 66.2804 63.1067 65.7604 64.216C65.275 65.36 64.6337 66.2613 63.8364 66.92C63.039 67.5787 62.0857 67.908 60.9764 67.908ZM72.6764 56V50.488C73.0577 50.488 73.3177 50.748 73.4564 51.268C73.6297 51.7533 73.7164 52.412 73.7164 53.244C73.7164 54.076 73.6297 54.752 73.4564 55.272C73.3177 55.7573 73.0577 56 72.6764 56ZM72.6914 56V50.488H81.6354C83.4727 50.488 85.2234 50.2107 86.8874 49.656C88.5861 49.1013 90.0941 48.3733 91.4114 47.472C92.7634 46.536 93.8207 45.496 94.5834 44.352C95.3461 43.1733 95.7274 41.9773 95.7274 40.764C95.7274 39.412 95.1901 38.372 94.1154 37.644C93.0407 36.916 91.3421 36.552 89.0194 36.552C86.7314 36.552 85.0327 36.916 83.9234 37.644C82.8487 38.3373 82.3114 39.3773 82.3114 40.764C82.3114 41.9773 82.6927 43.1733 83.4554 44.352C84.2527 45.496 85.3101 46.536 86.6274 47.472C87.9447 48.3733 89.4527 49.1013 91.1514 49.656C92.8501 50.2107 94.6007 50.488 96.4034 50.488H105.347V56H96.4034C94.0114 56 91.5847 55.6187 89.1234 54.856C86.6621 54.0933 84.4087 53.036 82.3634 51.684C80.3181 50.2973 78.6714 48.6853 77.4234 46.848C76.1754 44.976 75.5514 42.948 75.5514 40.764C75.5514 39.0307 75.9501 37.5573 76.7474 36.344C77.5447 35.096 78.6021 34.0907 79.9194 33.328C81.2714 32.5307 82.7274 31.9587 84.2874 31.612C85.8821 31.2307 87.4594 31.04 89.0194 31.04C90.5794 31.04 92.1394 31.2307 93.6994 31.612C95.2941 31.9587 96.7501 32.5133 98.0674 33.276C99.3847 34.0387 100.442 35.044 101.239 36.292C102.071 37.5053 102.487 38.996 102.487 40.764C102.487 42.948 101.863 44.976 100.615 46.848C99.4021 48.6853 97.7727 50.2973 95.7274 51.684C93.6821 53.036 91.4287 54.0933 88.9674 54.856C86.5061 55.6187 84.0621 56 81.6354 56H72.6914ZM72.6914 56C72.3447 56 72.0847 55.7573 71.9114 55.272C71.7381 54.752 71.6514 54.076 71.6514 53.244C71.6514 52.412 71.7381 51.7533 71.9114 51.268C72.0847 50.748 72.3447 50.488 72.6914 50.488V56ZM105.347 56V50.488C105.729 50.488 105.989 50.748 106.127 51.268C106.301 51.7533 106.387 52.412 106.387 53.244C106.387 54.076 106.301 54.752 106.127 55.272C105.989 55.7573 105.729 56 105.347 56ZM133.476 56C131.534 56 129.784 55.5667 128.224 54.7C126.698 53.8333 125.485 52.6373 124.584 51.112C123.717 49.5867 123.284 47.8707 123.284 45.964V43.676H130.044V45.964C130.044 46.6573 130.165 47.368 130.408 48.096C130.65 48.7893 131.032 49.3613 131.552 49.812C132.072 50.2627 132.713 50.488 133.476 50.488H136.128V56H133.476ZM105.344 56V50.488H118.448C120.042 50.488 121.238 49.8813 122.036 48.668C122.868 47.42 123.284 45.6867 123.284 43.468C123.284 41.0067 122.833 39.2387 121.932 38.164C121.03 37.0893 119.678 36.552 117.876 36.552C117.356 36.552 116.87 36.5867 116.42 36.656C115.969 36.6907 115.622 36.7427 115.38 36.812V56H108.62V36.812C108.62 35.148 109.469 33.7787 111.168 32.704C112.901 31.5947 115.137 31.04 117.876 31.04C121.585 31.04 124.532 32.132 126.716 34.316C128.934 36.5 130.044 39.5507 130.044 43.468C130.044 46.1027 129.558 48.356 128.588 50.228C127.617 52.1 126.3 53.5387 124.636 54.544C123.006 55.5147 121.169 56 119.124 56H105.344ZM105.344 56C104.997 56 104.737 55.7573 104.564 55.272C104.39 54.752 104.304 54.076 104.304 53.244C104.304 52.412 104.39 51.7533 104.564 51.268C104.737 50.748 104.997 50.488 105.344 50.488V56ZM136.128 56V50.488C136.509 50.488 136.769 50.748 136.908 51.268C137.081 51.7533 137.168 52.412 137.168 53.244C137.168 54.076 137.081 54.752 136.908 55.272C136.769 55.7573 136.509 56 136.128 56ZM136.117 56V50.488H138.769C139.567 50.488 140.208 50.2627 140.693 49.812C141.213 49.3613 141.595 48.7893 141.837 48.096C142.08 47.368 142.201 46.6573 142.201 45.964V29.324C142.201 28.076 142.045 27.1747 141.733 26.62C141.421 26.0653 141.075 25.7013 140.693 25.528C140.312 25.3547 140.017 25.216 139.809 25.112C139.809 24.8 139.931 24.384 140.173 23.864C140.451 23.3093 140.884 22.8067 141.473 22.356C142.097 21.9053 142.912 21.68 143.917 21.68C144.957 21.68 145.841 21.9573 146.569 22.512C147.332 23.032 147.921 23.76 148.337 24.696C148.753 25.632 148.961 26.7067 148.961 27.92V45.964C148.961 47.8707 148.511 49.5867 147.609 51.112C146.743 52.6373 145.547 53.8333 144.021 54.7C142.496 55.5667 140.745 56 138.769 56H136.117ZM136.117 56C135.771 56 135.511 55.7573 135.337 55.272C135.164 54.752 135.077 54.076 135.077 53.244C135.077 52.412 135.164 51.7533 135.337 51.268C135.511 50.748 135.771 50.488 136.117 50.488V56ZM160.333 56C159.05 56 158.166 55.636 157.681 54.908C157.196 54.1453 156.953 53.3307 156.953 52.464V29.324C156.953 28.076 156.797 27.1747 156.485 26.62C156.173 26.0653 155.826 25.7013 155.445 25.528C155.064 25.3547 154.769 25.216 154.561 25.112C154.561 24.8347 154.682 24.4187 154.925 23.864C155.202 23.3093 155.636 22.8067 156.225 22.356C156.849 21.9053 157.681 21.68 158.721 21.68C159.726 21.68 160.593 21.9573 161.321 22.512C162.084 23.032 162.673 23.76 163.089 24.696C163.505 25.632 163.713 26.7067 163.713 27.92V52.568C163.713 53.3653 163.47 54.1453 162.985 54.908C162.5 55.636 161.616 56 160.333 56ZM193.216 56.468C189.541 56.468 186.872 55.3413 185.208 53.088C183.544 50.8 182.712 47.628 182.712 43.572C182.712 41.0413 183.041 38.84 183.7 36.968C184.393 35.096 185.503 33.64 187.028 32.6C188.553 31.56 190.616 31.04 193.216 31.04C195.851 31.04 197.931 31.56 199.456 32.6C200.981 33.64 202.073 35.1133 202.732 37.02C203.391 38.892 203.72 41.076 203.72 43.572C203.72 47.5933 202.888 50.748 201.224 53.036C199.595 55.324 196.925 56.468 193.216 56.468ZM193.216 50.956C194.152 50.956 194.863 50.6613 195.348 50.072C195.868 49.4827 196.232 48.772 196.44 47.94C196.683 47.108 196.821 46.3107 196.856 45.548C196.925 44.7507 196.96 44.144 196.96 43.728C196.96 43.312 196.925 42.7227 196.856 41.96C196.821 41.1627 196.683 40.348 196.44 39.516C196.232 38.684 195.868 37.9907 195.348 37.436C194.863 36.8467 194.152 36.552 193.216 36.552C192.28 36.552 191.552 36.8467 191.032 37.436C190.547 37.9907 190.183 38.684 189.94 39.516C189.732 40.348 189.593 41.1627 189.524 41.96C189.489 42.7227 189.472 43.312 189.472 43.728C189.472 44.144 189.489 44.7507 189.524 45.548C189.593 46.3107 189.732 47.108 189.94 47.94C190.183 48.772 190.547 49.4827 191.032 50.072C191.552 50.6613 192.28 50.956 193.216 50.956ZM197.428 27.4C196.527 27.4 195.729 27.0707 195.036 26.412C194.377 25.7533 194.048 24.956 194.048 24.02C194.048 23.084 194.377 22.2867 195.036 21.628C195.729 20.9693 196.527 20.64 197.428 20.64C198.399 20.64 199.196 20.9693 199.82 21.628C200.479 22.2867 200.808 23.084 200.808 24.02C200.808 24.956 200.479 25.7533 199.82 26.412C199.196 27.0707 198.399 27.4 197.428 27.4ZM189.004 27.4C188.103 27.4 187.305 27.0707 186.612 26.412C185.953 25.7533 185.624 24.956 185.624 24.02C185.624 23.084 185.953 22.2867 186.612 21.628C187.305 20.9693 188.103 20.64 189.004 20.64C189.94 20.64 190.737 20.9693 191.396 21.628C192.055 22.2867 192.384 23.084 192.384 24.02C192.384 24.956 192.055 25.7533 191.396 26.412C190.737 27.0707 189.94 27.4 189.004 27.4ZM231.653 56V50.488H236.905V56H231.653ZM221.149 56C219.139 56 217.301 55.5147 215.637 54.544C213.973 53.5387 212.656 52.1 211.685 50.228C210.715 48.356 210.229 46.1027 210.229 43.468C210.229 39.5507 211.321 36.5 213.505 34.316C215.724 32.132 218.688 31.04 222.397 31.04C225.136 31.04 227.355 31.5947 229.053 32.704C230.787 33.7787 231.653 35.148 231.653 36.812V56H224.893V36.812C224.651 36.7427 224.304 36.6907 223.853 36.656C223.403 36.5867 222.917 36.552 222.397 36.552C220.595 36.552 219.243 37.0893 218.341 38.164C217.44 39.2387 216.989 41.0067 216.989 43.468C216.989 45.6867 217.388 47.42 218.185 48.668C219.017 49.8813 220.231 50.488 221.825 50.488H231.653V56H221.149ZM225.309 67.908C224.443 67.908 223.715 67.7173 223.125 67.336C222.536 66.9547 222.085 66.504 221.773 65.984C221.496 65.4987 221.357 65.0827 221.357 64.736C222.085 64.1813 222.709 63.5573 223.229 62.864C223.749 62.1707 224.148 61.2693 224.425 60.16C224.737 59.0853 224.893 57.6987 224.893 56V50.488H231.653V56C231.653 57.5253 231.515 58.9987 231.237 60.42C230.995 61.8413 230.613 63.1067 230.093 64.216C229.608 65.36 228.967 66.2613 228.169 66.92C227.372 67.5787 226.419 67.908 225.309 67.908ZM236.905 56V50.488C237.287 50.488 237.547 50.748 237.685 51.268C237.859 51.7533 237.945 52.412 237.945 53.244C237.945 54.076 237.859 54.752 237.685 55.272C237.547 55.7573 237.287 56 236.905 56ZM264.894 56C262.953 56 261.202 55.5667 259.642 54.7C258.117 53.8333 256.903 52.6373 256.002 51.112C255.135 49.5867 254.702 47.8707 254.702 45.964H261.462C261.462 46.6573 261.583 47.368 261.826 48.096C262.069 48.7893 262.45 49.3613 262.97 49.812C263.49 50.2627 264.131 50.488 264.894 50.488H267.546V56H264.894ZM236.918 56V50.488H251.062C252.241 50.488 253.142 50.124 253.766 49.396C254.39 48.668 254.702 47.6107 254.702 46.224V36.812C254.459 36.7427 254.113 36.6907 253.662 36.656C253.211 36.5867 252.726 36.552 252.206 36.552C250.403 36.552 249.051 37.0893 248.15 38.164C247.249 39.2387 246.798 41.0067 246.798 43.468C246.798 45.6867 247.197 47.368 247.994 48.512C248.826 49.656 250.039 50.3147 251.634 50.488L250.958 55.948C248.947 55.74 247.11 55.168 245.446 54.232C243.817 53.2613 242.499 51.892 241.494 50.124C240.523 48.3213 240.038 46.1027 240.038 43.468C240.038 39.5507 241.13 36.5 243.314 34.316C245.533 32.132 248.497 31.04 252.206 31.04C254.945 31.04 257.163 31.5947 258.862 32.704C260.595 33.7787 261.462 35.148 261.462 36.812V46.224C261.462 48.096 261.011 49.7773 260.11 51.268C259.243 52.724 258.03 53.8853 256.47 54.752C254.91 55.584 253.107 56 251.062 56H236.918ZM236.918 56C236.571 56 236.311 55.7573 236.138 55.272C235.965 54.752 235.878 54.076 235.878 53.244C235.878 52.412 235.965 51.7533 236.138 51.268C236.311 50.748 236.571 50.488 236.918 50.488V56ZM267.546 56V50.488C267.927 50.488 268.187 50.748 268.326 51.268C268.499 51.7533 268.586 52.412 268.586 53.244C268.586 54.076 268.499 54.752 268.326 55.272C268.187 55.7573 267.927 56 267.546 56ZM252.258 27.66C251.183 27.66 250.265 27.296 249.502 26.568C248.774 25.8053 248.41 24.9213 248.41 23.916C248.41 22.876 248.774 21.992 249.502 21.264C250.265 20.536 251.183 20.172 252.258 20.172C253.263 20.172 254.13 20.536 254.858 21.264C255.621 21.992 256.002 22.876 256.002 23.916C256.002 24.9213 255.621 25.8053 254.858 26.568C254.13 27.296 253.263 27.66 252.258 27.66ZM267.539 56V50.488H294.943C296.052 50.488 296.936 50.0373 297.595 49.136C298.288 48.2347 298.635 46.7613 298.635 44.716C298.635 41.8387 297.942 39.7587 296.555 38.476C295.203 37.1933 293.279 36.552 290.783 36.552C288.842 36.552 287.178 36.8813 285.791 37.54C284.439 38.164 283.295 38.996 282.359 40.036C281.458 41.0413 280.73 42.1507 280.175 43.364C279.62 44.5427 279.17 45.6867 278.823 46.796H275.495C276.05 44.5427 276.656 42.5667 277.315 40.868C277.974 39.1347 278.702 37.644 279.499 36.396C280.331 35.148 281.267 34.1427 282.307 33.38C283.382 32.5827 284.595 31.9933 285.947 31.612C287.299 31.2307 288.842 31.04 290.575 31.04C295.22 31.04 298.843 32.2533 301.443 34.68C304.078 37.1067 305.395 40.4173 305.395 44.612C305.395 48.148 304.459 50.9387 302.587 52.984C300.75 54.9947 298.202 56 294.943 56H267.539ZM272.063 56V39.672C272.063 38.6667 271.803 37.8867 271.283 37.332C270.798 36.7427 270.312 36.3787 269.827 36.24C270 35.6507 270.434 35.044 271.127 34.42C271.855 33.796 272.93 33.484 274.351 33.484C275.426 33.484 276.258 33.6747 276.847 34.056C277.471 34.4373 277.922 34.9227 278.199 35.512C278.476 36.0667 278.65 36.6213 278.719 37.176C278.788 37.696 278.823 38.112 278.823 38.424V56H272.063ZM267.539 56C267.192 56 266.932 55.7573 266.759 55.272C266.586 54.752 266.499 54.076 266.499 53.244C266.499 52.412 266.586 51.7533 266.759 51.268C266.932 50.748 267.192 50.488 267.539 50.488V56Z" fill="url(#paint0_linear_209_37)"/>
<path d="M379 43.8872C379 59.4135 366.464 72 351 72C335.536 72 323 59.4135 323 43.8872C323 28.3609 349.462 -1.09321 350.72 0.0312974C352.542 -0.812094 379 28.3609 379 43.8872Z" fill="#01CD85"/>
<g filter="url(#filter0_i_209_37)">
<path d="M343.854 54.608C342.099 54.608 340.578 54.3093 339.29 53.712C338.002 53.1333 337.003 52.284 336.294 51.164C335.603 50.0627 335.258 48.728 335.258 47.16C335.258 46.488 335.323 45.816 335.454 45.144C335.603 44.472 335.818 43.856 336.098 43.296C336.378 42.736 336.723 42.288 337.133 41.952C337.563 41.616 338.067 41.448 338.646 41.448C339.131 41.448 339.532 41.5507 339.85 41.756C340.167 41.9613 340.4 42.1947 340.55 42.456C340.718 42.7173 340.802 42.9507 340.802 43.156C340.503 43.38 340.204 43.6507 339.906 43.968C339.607 44.2853 339.364 44.7053 339.178 45.228C338.991 45.732 338.898 46.3853 338.898 47.188C338.898 48.6813 339.299 49.792 340.102 50.52C340.904 51.2667 342.155 51.64 343.854 51.64C345.291 51.64 346.308 51.332 346.906 50.716C347.503 50.1 347.802 48.9893 347.802 47.384V39.292C347.802 38.7507 347.662 38.3307 347.382 38.032C347.12 37.7147 346.859 37.5187 346.598 37.444C346.691 37.1267 346.924 36.8 347.298 36.464C347.69 36.128 348.268 35.96 349.034 35.96C349.612 35.96 350.06 36.0627 350.378 36.268C350.714 36.4733 350.956 36.7347 351.106 37.052C351.255 37.3507 351.348 37.6493 351.386 37.948C351.423 38.228 351.442 38.452 351.442 38.62V47.384C351.442 49.5867 350.844 51.3413 349.65 52.648C348.455 53.9547 346.523 54.608 343.854 54.608ZM351.414 48V45.032H360.122C360.719 45.032 361.195 44.7893 361.55 44.304C361.923 43.8187 362.11 43.0253 362.11 41.924C362.11 40.3747 361.736 39.2547 360.99 38.564C360.262 37.8733 359.226 37.528 357.882 37.528C356.836 37.528 355.94 37.7053 355.194 38.06C354.466 38.396 353.85 38.844 353.346 39.404C352.86 39.9453 352.468 40.5427 352.17 41.196C351.871 41.8307 351.628 42.4467 351.442 43.044H349.65C349.948 41.8307 350.275 40.7667 350.63 39.852C350.984 38.9187 351.376 38.116 351.806 37.444C352.254 36.772 352.758 36.2307 353.318 35.82C353.896 35.3907 354.55 35.0733 355.278 34.868C356.006 34.6627 356.836 34.56 357.77 34.56C360.271 34.56 362.222 35.2133 363.622 36.52C365.04 37.8267 365.75 39.6093 365.75 41.868C365.75 43.772 365.246 45.2747 364.238 46.376C363.248 47.4587 361.876 48 360.122 48H351.414Z" fill="white"/>
</g>
<defs>
<filter id="filter0_i_209_37" x="335.258" y="34.56" width="30.492" height="24.048" filterUnits="userSpaceOnUse" color-interpolation-filters="sRGB">
<feFlood flood-opacity="0" result="BackgroundImageFix"/>
<feBlend mode="normal" in="SourceGraphic" in2="BackgroundImageFix" result="shape"/>
<feColorMatrix in="SourceAlpha" type="matrix" values="0 0 0 0 0 0 0 0 0 0 0 0 0 0 0 0 0 0 127 0" result="hardAlpha"/>
<feOffset dy="4"/>
<feGaussianBlur stdDeviation="2"/>
<feComposite in2="hardAlpha" operator="arithmetic" k2="-1" k3="1"/>
<feColorMatrix type="matrix" values="0 0 0 0 0 0 0 0 0 0 0 0 0 0 0 0 0 0 0.25 0"/>
<feBlend mode="normal" in2="shape" result="effect1_innerShadow_209_37"/>
</filter>
<linearGradient id="paint0_linear_209_37" x1="304" y1="44" x2="2.99998" y2="42.5" gradientUnits="userSpaceOnUse">
<stop stop-color="#01CD85"/>
<stop offset="0.609111" stop-color="#03C98F"/>
<stop offset="1" stop-color="#1C9DFF"/>
</linearGradient>
</defs>
</svg>
