<svg width="164" height="27" viewBox="0 0 164 27" fill="none" xmlns="http://www.w3.org/2000/svg">
<path d="M6.48969 20C5.40702 20 4.41769 19.7387 3.52169 19.216C2.62569 18.6747 1.91635 17.9 1.39369 16.892C0.871021 15.884 0.609688 14.6707 0.609688 13.252C0.609688 11.1427 1.19769 9.5 2.37369 8.324C3.56835 7.148 5.16435 6.56 7.16169 6.56C8.63635 6.56 9.83102 6.85867 10.7457 7.456C11.679 8.03467 12.1457 8.772 12.1457 9.668V20H8.50569V9.668C8.37502 9.63067 8.18835 9.60267 7.94569 9.584C7.70302 9.54667 7.44169 9.528 7.16169 9.528C6.19102 9.528 5.46302 9.81733 4.97769 10.396C4.49235 10.9747 4.24969 11.9267 4.24969 13.252C4.24969 14.4467 4.46435 15.38 4.89369 16.052C5.34169 16.7053 5.99502 17.032 6.85369 17.032H13.9097V20H6.48969ZM13.9097 20V17.032C14.115 17.032 14.255 17.172 14.3297 17.452C14.423 17.7133 14.4697 18.068 14.4697 18.516C14.4697 18.964 14.423 19.328 14.3297 19.608C14.255 19.8693 14.115 20 13.9097 20ZM8.70169 4.6C8.21635 4.6 7.78702 4.42267 7.41369 4.068C7.05902 3.71333 6.88169 3.284 6.88169 2.78C6.88169 2.276 7.05902 1.84667 7.41369 1.492C7.78702 1.13733 8.21635 0.96 8.70169 0.96C9.22435 0.96 9.65369 1.13733 9.98969 1.492C10.3444 1.84667 10.5217 2.276 10.5217 2.78C10.5217 3.284 10.3444 3.71333 9.98969 4.068C9.65369 4.42267 9.22435 4.6 8.70169 4.6ZM4.16569 4.6C3.68035 4.6 3.25102 4.42267 2.87769 4.068C2.52302 3.71333 2.34569 3.284 2.34569 2.78C2.34569 2.276 2.52302 1.84667 2.87769 1.492C3.25102 1.13733 3.68035 0.96 4.16569 0.96C4.66969 0.96 5.09902 1.13733 5.45369 1.492C5.80835 1.84667 5.98569 2.276 5.98569 2.78C5.98569 3.284 5.80835 3.71333 5.45369 4.068C5.09902 4.42267 4.66969 4.6 4.16569 4.6ZM13.9141 20V17.032H21.5301C22.1647 17.032 22.6501 16.836 22.9861 16.444C23.3221 16.052 23.4901 15.4827 23.4901 14.736V9.668C23.3594 9.63067 23.1727 9.60267 22.9301 9.584C22.6874 9.54667 22.4261 9.528 22.1461 9.528C21.1754 9.528 20.4474 9.81733 19.9621 10.396C19.4767 10.9747 19.2341 11.9267 19.2341 13.252C19.2341 14.4467 19.4487 15.352 19.8781 15.968C20.3261 16.584 20.9794 16.9387 21.8381 17.032L21.4741 19.972C20.3914 19.86 19.4021 19.552 18.5061 19.048C17.6287 18.5253 16.9194 17.788 16.3781 16.836C15.8554 15.8653 15.5941 14.6707 15.5941 13.252C15.5941 11.1427 16.1821 9.5 17.3581 8.324C18.5527 7.148 20.1487 6.56 22.1461 6.56C23.6207 6.56 24.8154 6.85867 25.7301 7.456C26.6634 8.03467 27.1301 8.772 27.1301 9.668V14.736C27.1301 15.744 26.8874 16.6493 26.4021 17.452C25.9354 18.236 25.2821 18.8613 24.4421 19.328C23.6021 19.776 22.6314 20 21.5301 20H13.9141ZM13.9141 20C13.7274 20 13.5874 19.8693 13.4941 19.608C13.4007 19.328 13.3541 18.964 13.3541 18.516C13.3541 18.068 13.4007 17.7133 13.4941 17.452C13.5874 17.172 13.7274 17.032 13.9141 17.032V20ZM22.1741 4.74C21.5954 4.74 21.1007 4.544 20.6901 4.152C20.2981 3.74133 20.1021 3.26533 20.1021 2.724C20.1021 2.164 20.2981 1.688 20.6901 1.296C21.1007 0.903999 21.5954 0.708 22.1741 0.708C22.7154 0.708 23.1821 0.903999 23.5741 1.296C23.9847 1.688 24.1901 2.164 24.1901 2.724C24.1901 3.26533 23.9847 3.74133 23.5741 4.152C23.1821 4.544 22.7154 4.74 22.1741 4.74ZM35.0571 20V17.032H37.9411V20H35.0571ZM31.6411 26.412C31.1745 26.412 30.7825 26.3093 30.4651 26.104C30.1478 25.8987 29.9051 25.656 29.7371 25.376C29.5878 25.1147 29.5131 24.8907 29.5131 24.704C29.9051 24.4053 30.2411 24.0693 30.5211 23.696C30.8011 23.3227 31.0158 22.8373 31.1651 22.24C31.3331 21.6613 31.4171 20.9147 31.4171 20V8.296C31.4171 7.75467 31.5851 7.33467 31.9211 7.036C32.2758 6.71867 32.7145 6.56 33.2371 6.56C33.7785 6.56 34.2171 6.71867 34.5531 7.036C34.8891 7.33467 35.0571 7.75467 35.0571 8.296V20C35.0571 20.8213 34.9825 21.6147 34.8331 22.38C34.7025 23.1453 34.4971 23.8267 34.2171 24.424C33.9558 25.04 33.6105 25.5253 33.1811 25.88C32.7518 26.2347 32.2385 26.412 31.6411 26.412ZM37.9411 20V17.032C38.1465 17.032 38.2865 17.172 38.3611 17.452C38.4545 17.7133 38.5011 18.068 38.5011 18.516C38.5011 18.964 38.4545 19.328 38.3611 19.608C38.2865 19.8693 38.1465 20 37.9411 20ZM37.9492 20V17.032H42.7652C43.7546 17.032 44.6972 16.8827 45.5932 16.584C46.5079 16.2853 47.3199 15.8933 48.0292 15.408C48.7572 14.904 49.3266 14.344 49.7372 13.728C50.1479 13.0933 50.3532 12.4493 50.3532 11.796C50.3532 11.068 50.0639 10.508 49.4852 10.116C48.9066 9.724 47.9919 9.528 46.7412 9.528C45.5092 9.528 44.5946 9.724 43.9972 10.116C43.4186 10.4893 43.1292 11.0493 43.1292 11.796C43.1292 12.4493 43.3346 13.0933 43.7452 13.728C44.1746 14.344 44.7439 14.904 45.4532 15.408C46.1626 15.8933 46.9746 16.2853 47.8892 16.584C48.8039 16.8827 49.7466 17.032 50.7172 17.032H55.5332V20H50.7172C49.4292 20 48.1226 19.7947 46.7972 19.384C45.4719 18.9733 44.2586 18.404 43.1572 17.676C42.0559 16.9293 41.1692 16.0613 40.4972 15.072C39.8252 14.064 39.4892 12.972 39.4892 11.796C39.4892 10.8627 39.7039 10.0693 40.1332 9.416C40.5626 8.744 41.1319 8.20267 41.8412 7.792C42.5692 7.36267 43.3532 7.05467 44.1932 6.868C45.0519 6.66267 45.9012 6.56 46.7412 6.56C47.5812 6.56 48.4212 6.66267 49.2612 6.868C50.1199 7.05467 50.9039 7.35333 51.6132 7.764C52.3226 8.17467 52.8919 8.716 53.3212 9.388C53.7692 10.0413 53.9932 10.844 53.9932 11.796C53.9932 12.972 53.6572 14.064 52.9852 15.072C52.3319 16.0613 51.4546 16.9293 50.3532 17.676C49.2519 18.404 48.0386 18.9733 46.7132 19.384C45.3879 19.7947 44.0719 20 42.7652 20H37.9492ZM37.9492 20C37.7626 20 37.6226 19.8693 37.5292 19.608C37.4359 19.328 37.3892 18.964 37.3892 18.516C37.3892 18.068 37.4359 17.7133 37.5292 17.452C37.6226 17.172 37.7626 17.032 37.9492 17.032V20ZM55.5332 20V17.032C55.7386 17.032 55.8786 17.172 55.9532 17.452C56.0466 17.7133 56.0932 18.068 56.0932 18.516C56.0932 18.964 56.0466 19.328 55.9532 19.608C55.8786 19.8693 55.7386 20 55.5332 20ZM70.6793 20C69.6339 20 68.6913 19.7667 67.8513 19.3C67.0299 18.8333 66.3766 18.1893 65.8913 17.368C65.4246 16.5467 65.1913 15.6227 65.1913 14.596V13.364H68.8313V14.596C68.8313 14.9693 68.8966 15.352 69.0273 15.744C69.1579 16.1173 69.3633 16.4253 69.6433 16.668C69.9233 16.9107 70.2686 17.032 70.6793 17.032H72.1073V20H70.6793ZM55.5312 20V17.032H62.5873C63.4459 17.032 64.0899 16.7053 64.5193 16.052C64.9673 15.38 65.1913 14.4467 65.1913 13.252C65.1913 11.9267 64.9486 10.9747 64.4633 10.396C63.9779 9.81733 63.2499 9.528 62.2793 9.528C61.9993 9.528 61.7379 9.54667 61.4953 9.584C61.2526 9.60267 61.0659 9.63067 60.9353 9.668V20H57.2953V9.668C57.2953 8.772 57.7526 8.03467 58.6673 7.456C59.6006 6.85867 60.8046 6.56 62.2793 6.56C64.2766 6.56 65.8633 7.148 67.0393 8.324C68.2339 9.5 68.8313 11.1427 68.8313 13.252C68.8313 14.6707 68.5699 15.884 68.0473 16.892C67.5246 17.9 66.8153 18.6747 65.9193 19.216C65.0419 19.7387 64.0526 20 62.9513 20H55.5312ZM55.5312 20C55.3446 20 55.2046 19.8693 55.1112 19.608C55.0179 19.328 54.9712 18.964 54.9712 18.516C54.9712 18.068 55.0179 17.7133 55.1112 17.452C55.2046 17.172 55.3446 17.032 55.5312 17.032V20ZM72.1073 20V17.032C72.3126 17.032 72.4526 17.172 72.5273 17.452C72.6206 17.7133 72.6673 18.068 72.6673 18.516C72.6673 18.964 72.6206 19.328 72.5273 19.608C72.4526 19.8693 72.3126 20 72.1073 20ZM72.1016 20V17.032H73.5296C73.9589 17.032 74.3042 16.9107 74.5656 16.668C74.8456 16.4253 75.0509 16.1173 75.1816 15.744C75.3122 15.352 75.3776 14.9693 75.3776 14.596V5.636C75.3776 4.964 75.2936 4.47867 75.1256 4.18C74.9576 3.88133 74.7709 3.68533 74.5656 3.592C74.3602 3.49867 74.2016 3.424 74.0896 3.368C74.0896 3.2 74.1549 2.976 74.2856 2.696C74.4349 2.39733 74.6682 2.12667 74.9856 1.884C75.3216 1.64133 75.7602 1.52 76.3016 1.52C76.8616 1.52 77.3376 1.66933 77.7296 1.968C78.1402 2.248 78.4576 2.64 78.6816 3.144C78.9056 3.648 79.0176 4.22667 79.0176 4.88V14.596C79.0176 15.6227 78.7749 16.5467 78.2896 17.368C77.8229 18.1893 77.1789 18.8333 76.3576 19.3C75.5362 19.7667 74.5936 20 73.5296 20H72.1016ZM72.1016 20C71.9149 20 71.7749 19.8693 71.6816 19.608C71.5882 19.328 71.5416 18.964 71.5416 18.516C71.5416 18.068 71.5882 17.7133 71.6816 17.452C71.7749 17.172 71.9149 17.032 72.1016 17.032V20ZM85.1408 20C84.4501 20 83.9741 19.804 83.7128 19.412C83.4515 19.0013 83.3208 18.5627 83.3208 18.096V5.636C83.3208 4.964 83.2368 4.47867 83.0688 4.18C82.9008 3.88133 82.7141 3.68533 82.5088 3.592C82.3035 3.49867 82.1448 3.424 82.0328 3.368C82.0328 3.21867 82.0981 2.99467 82.2288 2.696C82.3781 2.39733 82.6115 2.12667 82.9288 1.884C83.2648 1.64133 83.7128 1.52 84.2728 1.52C84.8141 1.52 85.2808 1.66933 85.6728 1.968C86.0835 2.248 86.4008 2.64 86.6248 3.144C86.8488 3.648 86.9608 4.22667 86.9608 4.88V18.152C86.9608 18.5813 86.8301 19.0013 86.5688 19.412C86.3075 19.804 85.8315 20 85.1408 20ZM102.847 20.252C100.868 20.252 99.4311 19.6453 98.5351 18.432C97.6391 17.2 97.1911 15.492 97.1911 13.308C97.1911 11.9453 97.3684 10.76 97.7231 9.752C98.0964 8.744 98.6938 7.96 99.5151 7.4C100.336 6.84 101.447 6.56 102.847 6.56C104.266 6.56 105.386 6.84 106.207 7.4C107.028 7.96 107.616 8.75333 107.971 9.78C108.326 10.788 108.503 11.964 108.503 13.308C108.503 15.4733 108.055 17.172 107.159 18.404C106.282 19.636 104.844 20.252 102.847 20.252ZM102.847 17.284C103.351 17.284 103.734 17.1253 103.995 16.808C104.275 16.4907 104.471 16.108 104.583 15.66C104.714 15.212 104.788 14.7827 104.807 14.372C104.844 13.9427 104.863 13.616 104.863 13.392C104.863 13.168 104.844 12.8507 104.807 12.44C104.788 12.0107 104.714 11.572 104.583 11.124C104.471 10.676 104.275 10.3027 103.995 10.004C103.734 9.68667 103.351 9.528 102.847 9.528C102.343 9.528 101.951 9.68667 101.671 10.004C101.41 10.3027 101.214 10.676 101.083 11.124C100.971 11.572 100.896 12.0107 100.859 12.44C100.84 12.8507 100.831 13.168 100.831 13.392C100.831 13.616 100.84 13.9427 100.859 14.372C100.896 14.7827 100.971 15.212 101.083 15.66C101.214 16.108 101.41 16.4907 101.671 16.808C101.951 17.1253 102.343 17.284 102.847 17.284ZM105.115 4.6C104.63 4.6 104.2 4.42267 103.827 4.068C103.472 3.71333 103.295 3.284 103.295 2.78C103.295 2.276 103.472 1.84667 103.827 1.492C104.2 1.13733 104.63 0.96 105.115 0.96C105.638 0.96 106.067 1.13733 106.403 1.492C106.758 1.84667 106.935 2.276 106.935 2.78C106.935 3.284 106.758 3.71333 106.403 4.068C106.067 4.42267 105.638 4.6 105.115 4.6ZM100.579 4.6C100.094 4.6 99.6644 4.42267 99.2911 4.068C98.9364 3.71333 98.7591 3.284 98.7591 2.78C98.7591 2.276 98.9364 1.84667 99.2911 1.492C99.6644 1.13733 100.094 0.96 100.579 0.96C101.083 0.96 101.512 1.13733 101.867 1.492C102.222 1.84667 102.399 2.276 102.399 2.78C102.399 3.284 102.222 3.71333 101.867 4.068C101.512 4.42267 101.083 4.6 100.579 4.6ZM123.544 20V17.032H126.372V20H123.544ZM117.888 20C116.805 20 115.816 19.7387 114.92 19.216C114.024 18.6747 113.315 17.9 112.792 16.892C112.269 15.884 112.008 14.6707 112.008 13.252C112.008 11.1427 112.596 9.5 113.772 8.324C114.967 7.148 116.563 6.56 118.56 6.56C120.035 6.56 121.229 6.85867 122.144 7.456C123.077 8.03467 123.544 8.772 123.544 9.668V20H119.904V9.668C119.773 9.63067 119.587 9.60267 119.344 9.584C119.101 9.54667 118.84 9.528 118.56 9.528C117.589 9.528 116.861 9.81733 116.376 10.396C115.891 10.9747 115.648 11.9267 115.648 13.252C115.648 14.4467 115.863 15.38 116.292 16.052C116.74 16.7053 117.393 17.032 118.252 17.032H123.544V20H117.888ZM120.128 26.412C119.661 26.412 119.269 26.3093 118.952 26.104C118.635 25.8987 118.392 25.656 118.224 25.376C118.075 25.1147 118 24.8907 118 24.704C118.392 24.4053 118.728 24.0693 119.008 23.696C119.288 23.3227 119.503 22.8373 119.652 22.24C119.82 21.6613 119.904 20.9147 119.904 20V17.032H123.544V20C123.544 20.8213 123.469 21.6147 123.32 22.38C123.189 23.1453 122.984 23.8267 122.704 24.424C122.443 25.04 122.097 25.5253 121.668 25.88C121.239 26.2347 120.725 26.412 120.128 26.412ZM126.372 20V17.032C126.577 17.032 126.717 17.172 126.792 17.452C126.885 17.7133 126.932 18.068 126.932 18.516C126.932 18.964 126.885 19.328 126.792 19.608C126.717 19.8693 126.577 20 126.372 20ZM141.443 20C140.398 20 139.455 19.7667 138.615 19.3C137.794 18.8333 137.14 18.1893 136.655 17.368C136.188 16.5467 135.955 15.6227 135.955 14.596H139.595C139.595 14.9693 139.66 15.352 139.791 15.744C139.922 16.1173 140.127 16.4253 140.407 16.668C140.687 16.9107 141.032 17.032 141.443 17.032H142.871V20H141.443ZM126.379 20V17.032H133.995C134.63 17.032 135.115 16.836 135.451 16.444C135.787 16.052 135.955 15.4827 135.955 14.736V9.668C135.824 9.63067 135.638 9.60267 135.395 9.584C135.152 9.54667 134.891 9.528 134.611 9.528C133.64 9.528 132.912 9.81733 132.427 10.396C131.942 10.9747 131.699 11.9267 131.699 13.252C131.699 14.4467 131.914 15.352 132.343 15.968C132.791 16.584 133.444 16.9387 134.303 17.032L133.939 19.972C132.856 19.86 131.867 19.552 130.971 19.048C130.094 18.5253 129.384 17.788 128.843 16.836C128.32 15.8653 128.059 14.6707 128.059 13.252C128.059 11.1427 128.647 9.5 129.823 8.324C131.018 7.148 132.614 6.56 134.611 6.56C136.086 6.56 137.28 6.85867 138.195 7.456C139.128 8.03467 139.595 8.772 139.595 9.668V14.736C139.595 15.744 139.352 16.6493 138.867 17.452C138.4 18.236 137.747 18.8613 136.907 19.328C136.067 19.776 135.096 20 133.995 20H126.379ZM126.379 20C126.192 20 126.052 19.8693 125.959 19.608C125.866 19.328 125.819 18.964 125.819 18.516C125.819 18.068 125.866 17.7133 125.959 17.452C126.052 17.172 126.192 17.032 126.379 17.032V20ZM142.871 20V17.032C143.076 17.032 143.216 17.172 143.291 17.452C143.384 17.7133 143.431 18.068 143.431 18.516C143.431 18.964 143.384 19.328 143.291 19.608C143.216 19.8693 143.076 20 142.871 20ZM134.639 4.74C134.06 4.74 133.566 4.544 133.155 4.152C132.763 3.74133 132.567 3.26533 132.567 2.724C132.567 2.164 132.763 1.688 133.155 1.296C133.566 0.903999 134.06 0.708 134.639 0.708C135.18 0.708 135.647 0.903999 136.039 1.296C136.45 1.688 136.655 2.164 136.655 2.724C136.655 3.26533 136.45 3.74133 136.039 4.152C135.647 4.544 135.18 4.74 134.639 4.74ZM142.867 20V17.032H157.623C158.221 17.032 158.697 16.7893 159.051 16.304C159.425 15.8187 159.611 15.0253 159.611 13.924C159.611 12.3747 159.238 11.2547 158.491 10.564C157.763 9.87333 156.727 9.528 155.383 9.528C154.338 9.528 153.442 9.70533 152.695 10.06C151.967 10.396 151.351 10.844 150.847 11.404C150.362 11.9453 149.97 12.5427 149.671 13.196C149.373 13.8307 149.13 14.4467 148.943 15.044H147.151C147.45 13.8307 147.777 12.7667 148.131 11.852C148.486 10.9187 148.878 10.116 149.307 9.444C149.755 8.772 150.259 8.23067 150.819 7.82C151.398 7.39067 152.051 7.07333 152.779 6.868C153.507 6.66267 154.338 6.56 155.271 6.56C157.773 6.56 159.723 7.21333 161.123 8.52C162.542 9.82667 163.251 11.6093 163.251 13.868C163.251 15.772 162.747 17.2747 161.739 18.376C160.75 19.4587 159.378 20 157.623 20H142.867ZM145.303 20V11.208C145.303 10.6667 145.163 10.2467 144.883 9.948C144.622 9.63067 144.361 9.43467 144.099 9.36C144.193 9.04267 144.426 8.716 144.799 8.38C145.191 8.044 145.77 7.876 146.535 7.876C147.114 7.876 147.562 7.97867 147.879 8.184C148.215 8.38933 148.458 8.65067 148.607 8.968C148.757 9.26667 148.85 9.56533 148.887 9.864C148.925 10.144 148.943 10.368 148.943 10.536V20H145.303ZM142.867 20C142.681 20 142.541 19.8693 142.447 19.608C142.354 19.328 142.307 18.964 142.307 18.516C142.307 18.068 142.354 17.7133 142.447 17.452C142.541 17.172 142.681 17.032 142.867 17.032V20Z" fill="url(#paint0_linear_7_29)"/>
<defs>
<linearGradient id="paint0_linear_7_29" x1="216.009" y1="13" x2="-42.8198" y2="13" gradientUnits="userSpaceOnUse">
<stop offset="0.271236" stop-color="#01CD85"/>
<stop offset="1" stop-color="#1C9DFF"/>
</linearGradient>
</defs>
</svg>
